<svg width="200" height="51" viewBox="0 0 200 51" fill="none" xmlns="http://www.w3.org/2000/svg">
<circle cx="25" cy="26" r="25" fill="#A458DF"/>
<circle cx="100" cy="26" r="25" fill="#A458DF"/>
<circle cx="175" cy="25" r="25" fill="#A458DF"/>
<rect x="19" y="20" width="150" height="10" fill="#A458DF"/>
<path d="M27.7969 33H23.8359V20.3906L19.9453 21.5273V18.5273L27.4336 15.9375H27.7969V33Z" fill="white"/>
<path d="M105.949 33H94.043V30.4219L99.5273 24.6562C100.879 23.1172 101.555 21.8945 101.555 20.9883C101.555 20.2539 101.395 19.6953 101.074 19.3125C100.754 18.9297 100.289 18.7383 99.6797 18.7383C99.0781 18.7383 98.5898 18.9961 98.2148 19.5117C97.8398 20.0195 97.6523 20.6562 97.6523 21.4219H93.6914C93.6914 20.375 93.9531 19.4102 94.4766 18.5273C95 17.6367 95.7266 16.9414 96.6562 16.4414C97.5859 15.9414 98.625 15.6914 99.7734 15.6914C101.617 15.6914 103.035 16.1172 104.027 16.9688C105.027 17.8203 105.527 19.043 105.527 20.6367C105.527 21.3086 105.402 21.9648 105.152 22.6055C104.902 23.2383 104.512 23.9062 103.98 24.6094C103.457 25.3047 102.609 26.2383 101.438 27.4102L99.2344 29.9531H105.949V33Z" fill="white"/>
<path d="M172.652 22.8164H174.516C175.992 22.8164 176.73 22.0938 176.73 20.6484C176.73 20.0859 176.555 19.6289 176.203 19.2773C175.852 18.918 175.355 18.7383 174.715 18.7383C174.191 18.7383 173.734 18.8906 173.344 19.1953C172.961 19.5 172.77 19.8789 172.77 20.332H168.82C168.82 19.4336 169.07 18.6328 169.57 17.9297C170.07 17.2266 170.762 16.6797 171.645 16.2891C172.535 15.8906 173.512 15.6914 174.574 15.6914C176.473 15.6914 177.965 16.125 179.051 16.9922C180.137 17.8594 180.68 19.0508 180.68 20.5664C180.68 21.3008 180.453 21.9961 180 22.6523C179.555 23.3008 178.902 23.8281 178.043 24.2344C178.949 24.5625 179.66 25.0625 180.176 25.7344C180.691 26.3984 180.949 27.2227 180.949 28.207C180.949 29.7305 180.363 30.9492 179.191 31.8633C178.02 32.7773 176.48 33.2344 174.574 33.2344C173.457 33.2344 172.418 33.0234 171.457 32.6016C170.504 32.1719 169.781 31.582 169.289 30.832C168.797 30.0742 168.551 29.2148 168.551 28.2539H172.523C172.523 28.7773 172.734 29.2305 173.156 29.6133C173.578 29.9961 174.098 30.1875 174.715 30.1875C175.41 30.1875 175.965 29.9961 176.379 29.6133C176.793 29.2227 177 28.7266 177 28.125C177 27.2656 176.785 26.6562 176.355 26.2969C175.926 25.9375 175.332 25.7578 174.574 25.7578H172.652V22.8164Z" fill="white"/>
</svg>
