<svg width="43" height="27" viewBox="0 0 43 27" fill="none" xmlns="http://www.w3.org/2000/svg">
<path d="M5.50163 26.5164C4.52397 26.5185 3.56325 26.2611 2.71764 25.7704C1.87203 25.2797 1.17183 24.5733 0.688569 23.7235C0.212709 22.8796 -0.0246152 21.9221 0.00201887 20.9537C0.028653 19.9852 0.318242 19.0423 0.839765 18.2258L10.7515 2.66105C11.2588 1.82453 11.979 1.13766 12.8387 0.670582C13.6983 0.203508 14.6665 -0.0270281 15.6443 0.00252245C16.6215 0.0259384 17.5748 0.308544 18.4069 0.821419C19.2389 1.33429 19.9198 2.05902 20.3797 2.92144C21.3037 4.66859 21.1882 6.77063 20.0815 8.41068L10.1761 23.9754C9.67379 24.7582 8.982 25.4015 8.16486 25.8456C7.34773 26.2898 6.43168 26.5205 5.50163 26.5164V26.5164Z" fill="#F62B54"/>
<path d="M21.4919 26.5168C19.4926 26.5168 17.653 25.4479 16.687 23.7301C16.2122 22.8884 15.9754 21.9335 16.002 20.9675C16.0287 20.0015 16.3177 19.0611 16.8382 18.2469L26.7314 2.71718C27.2313 1.86886 27.949 1.16972 28.8101 0.692267C29.6712 0.214811 30.6444 -0.0235726 31.6287 0.00183866C33.6447 0.0459393 35.4717 1.17365 36.3958 2.93768C37.3135 4.7017 37.1791 6.81643 36.0387 8.45235L26.1476 23.9821C25.6468 24.7615 24.9578 25.4023 24.1441 25.8453C23.3304 26.2883 22.4183 26.5192 21.4919 26.5168V26.5168Z" fill="#FFCC00"/>
<path d="M37.1 26.9859C39.9167 26.9859 42.2 24.7505 42.2 21.993C42.2 19.2354 39.9167 17 37.1 17C34.2833 17 32 19.2354 32 21.993C32 24.7505 34.2833 26.9859 37.1 26.9859Z" fill="#00CA72"/>
</svg>
